<svg xmlns="http://www.w3.org/2000/svg" viewBox="0 0 512 512" width="512" height="512">
  <defs>
    <clipPath id="circle-clip"><circle cx="256" cy="256" r="256"/></clipPath>
  </defs>
  <!-- 背景 -->
  <circle cx="256" cy="256" r="256" fill="#0f0f1a"/>
  <!-- 外圈 -->
  <circle cx="256" cy="256" r="215" fill="none" stroke="#e6b422" stroke-width="8"/>
  <!-- 八卦线 -->
  <g stroke="rgba(230,180,34,0.5)" stroke-width="5" stroke-linecap="round">
    <line x1="256" y1="95" x2="256" y2="52"/>
    <line x1="370" y1="142" x2="400" y2="112"/>
    <line x1="417" y1="256" x2="460" y2="256"/>
    <line x1="370" y1="370" x2="400" y2="400"/>
    <line x1="256" y1="417" x2="256" y2="460"/>
    <line x1="142" y1="370" x2="112" y2="400"/>
    <line x1="95" y1="256" x2="52" y2="256"/>
    <line x1="142" y1="142" x2="112" y2="112"/>
  </g>
  <!-- 太极 阳鱼（金色） -->
  <path d="M256 137 A119 119 0 0 1 256 375 A59.5 59.5 0 0 0 256 256 A59.5 59.5 0 0 1 256 137Z" fill="#e6b422"/>
  <!-- 太极 阴鱼（深色） -->
  <path d="M256 375 A119 119 0 0 1 256 137 A59.5 59.5 0 0 0 256 256 A59.5 59.5 0 0 1 256 375Z" fill="#1a1a2e"/>
  <!-- 阳鱼眼 -->
  <circle cx="256" cy="315.5" r="18" fill="#e6b422"/>
  <!-- 阴鱼眼 -->
  <circle cx="256" cy="196.5" r="18" fill="#1a1a2e"/>
</svg>
